RhodiumLibreDevelopment-Regular.ufo
<glyph name="quotedbl" format="1">
  <advance width="412"/>
  <unicode hex="0022"/>
  <outline>
    <contour>
      <point x="171" y="680" type="line"/>
      <point x="71" y="680" type="line"/>
      <point x="71" y="635" type="line"/>
      <point x="97" y="358" type="line"/>
      <point x="145" y="358" type="line"/>
      <point x="171" y="635" type="line"/>
    </contour>
    <contour>
      <point x="341" y="680" type="line"/>
      <point x="241" y="680" type="line"/>
      <point x="241" y="635" type="line"/>
      <point x="267" y="358" type="line"/>
      <point x="315" y="358" type="line"/>
      <point x="341" y="635" type="line"/>
    </contour>
  </outline>
</glyph>
<glyph name="A" format="1">
  <advance width="722"/>
  <unicode hex="0041"/>
  <outline>
    <contour>
      <point x="305" y="688" type="line"/>
      <point x="77" y="86" type="line"/>
      <point x="8" y="55" type="line"/>
      <point x="8" y="0" type="line"/>
      <point x="221" y="0" type="line"/>
      <point x="221" y="55" type="line"/>
      <point x="150" y="81" type="line"/>
      <point x="369" y="671" type="line"/>
      <point x="337" y="671" type="line"/>
      <point x="554" y="82" type="line"/>
      <point x="484" y="55" type="line"/>
      <point x="484" y="0" type="line"/>
      <point x="714" y="0" type="line"/>
      <point x="714" y="55" type="line"/>
      <point x="645" y="87" type="line"/>
      <point x="417" y="688" type="line"/>
    </contour>
    <contour>
      <point x="191" y="300" type="line"/>
      <point x="169" y="229" type="line"/>
      <point x="534" y="229" type="line"/>
      <point x="510" y="300" type="line"/>
    </contour>
    <contour>
      <point x="626" y="10" type="move" name="ogonek"/>
    </contour>
    <contour>
      <point x="361" y="688" type="move" name="top"/>
    </contour>
  </outline>
</glyph>
<glyph name="D" format="1">
  <advance width="761"/>
  <unicode hex="0044"/>
  <outline>
    <contour>
      <point x="55" y="680" type="line"/>
      <point x="55" y="623" type="line"/>
      <point x="145" y="594" type="line"/>
      <point x="145" y="86" type="line"/>
      <point x="55" y="55" type="line"/>
      <point x="55" y="0" type="line"/>
      <point x="414" y="0" type="line" smooth="yes"/>
      <point x="566" y="0"/>
      <point x="719" y="70"/>
      <point x="719" y="342" type="curve" smooth="yes"/>
      <point x="719" y="610"/>
      <point x="566" y="680"/>
      <point x="414" y="680" type="curve" smooth="yes"/>
    </contour>
    <contour>
      <point x="530" y="608"/>
      <point x="629" y="559"/>
      <point x="629" y="342" type="curve" smooth="yes"/>
      <point x="629" y="120"/>
      <point x="530" y="72"/>
      <point x="393" y="72" type="curve" smooth="yes"/>
      <point x="231" y="72" type="line"/>
      <point x="231" y="608" type="line"/>
      <point x="393" y="608" type="line" smooth="yes"/>
    </contour>
    <contour>
      <point x="381" y="340" type="move" name="center"/>
    </contour>
    <contour>
      <point x="387" y="680" type="move" name="top"/>
    </contour>
  </outline>
</glyph>
<glyph name="a" format="1">
  <advance width="610"/>
  <unicode hex="0061"/>
  <outline>
    <contour>
      <point x="211" y="516"/>
      <point x="140" y="506"/>
      <point x="75" y="492" type="curve"/>
      <point x="75" y="420" type="line"/>
      <point x="143" y="435"/>
      <point x="211" y="444"/>
      <point x="285" y="444" type="curve" smooth="yes"/>
      <point x="397" y="444"/>
      <point x="423" y="413"/>
      <point x="423" y="324" type="curve" smooth="yes"/>
      <point x="423" y="285" type="line"/>
      <point x="397" y="299"/>
      <point x="348" y="314"/>
      <point x="279" y="314" type="curve" smooth="yes"/>
      <point x="117" y="314"/>
      <point x="47" y="264"/>
      <point x="47" y="147" type="curve" smooth="yes"/>
      <point x="47" y="35"/>
      <point x="110" y="-10"/>
      <point x="235" y="-10" type="curve" smooth="yes"/>
      <point x="322" y="-10"/>
      <point x="387" y="21"/>
      <point x="446" y="90" type="curve"/>
      <point x="423" y="90" type="line"/>
      <point x="456" y="0" type="line"/>
      <point x="575" y="0" type="line"/>
      <point x="575" y="55" type="line"/>
      <point x="507" y="85" type="line"/>
      <point x="507" y="342" type="line" smooth="yes"/>
      <point x="507" y="457"/>
      <point x="481" y="516"/>
      <point x="287" y="516" type="curve" smooth="yes"/>
    </contour>
    <contour>
      <point x="328" y="244"/>
      <point x="381" y="240"/>
      <point x="423" y="228" type="curve"/>
      <point x="423" y="128" type="line"/>
      <point x="375" y="88"/>
      <point x="315" y="62"/>
      <point x="249" y="62" type="curve" smooth="yes"/>
      <point x="160" y="62"/>
      <point x="135" y="90"/>
      <point x="135" y="153" type="curve" smooth="yes"/>
      <point x="135" y="212"/>
      <point x="167" y="244"/>
      <point x="288" y="244" type="curve" smooth="yes"/>
    </contour>
    <contour>
      <point x="487" y="10" type="move" name="ogonek"/>
    </contour>
    <contour>
      <point x="287" y="502" type="move" name="top"/>
    </contour>
  </outline>
</glyph>
<glyph name="f" format="1">
  <advance width="348"/>
  <unicode hex="0066"/>
  <outline>
    <contour>
      <point x="177" y="722"/>
      <point x="114" y="654"/>
      <point x="114" y="522" type="curve" smooth="yes"/>
      <point x="114" y="502" type="line"/>
      <point x="46" y="488" type="line"/>
      <point x="46" y="432" type="line"/>
      <point x="114" y="432" type="line"/>
      <point x="114" y="85" type="line"/>
      <point x="46" y="55" type="line"/>
      <point x="46" y="0" type="line"/>
      <point x="291" y="0" type="line"/>
      <point x="291" y="55" type="line"/>
      <point x="198" y="85" type="line"/>
      <point x="198" y="432" type="line"/>
      <point x="301" y="432" type="line"/>
      <point x="301" y="502" type="line"/>
      <point x="198" y="502" type="line"/>
      <point x="198" y="527" type="line" smooth="yes"/>
      <point x="198" y="624"/>
      <point x="226" y="660"/>
      <point x="301" y="660" type="curve"/>
      <point x="332" y="589" type="line"/>
      <point x="392" y="589"/>
      <point x="413" y="608"/>
      <point x="413" y="653" type="curve" smooth="yes"/>
      <point x="413" y="702"/>
      <point x="383" y="722"/>
      <point x="313" y="722" type="curve" smooth="yes"/>
    </contour>
    <contour>
      <point x="198" y="527" type="move"/>
    </contour>
  </outline>
</glyph>
<glyph name="m" format="1">
  <advance width="997"/>
  <unicode hex="006D"/>
  <outline>
    <contour>
      <point x="659" y="516"/>
      <point x="595" y="497"/>
      <point x="502" y="446" type="curve"/>
      <point x="535" y="443" type="line"/>
      <point x="505" y="495"/>
      <point x="460" y="516"/>
      <point x="386" y="516" type="curve" smooth="yes"/>
      <point x="312" y="516"/>
      <point x="248" y="497"/>
      <point x="155" y="446" type="curve"/>
      <point x="193" y="446" type="line"/>
      <point x="157" y="502" type="line"/>
      <point x="46" y="502" type="line"/>
      <point x="46" y="445" type="line"/>
      <point x="114" y="417" type="line"/>
      <point x="114" y="85" type="line"/>
      <point x="46" y="55" type="line"/>
      <point x="46" y="0" type="line"/>
      <point x="266" y="0" type="line"/>
      <point x="266" y="55" type="line"/>
      <point x="198" y="85" type="line"/>
      <point x="198" y="402" type="line"/>
      <point x="268" y="427"/>
      <point x="308" y="443"/>
      <point x="359" y="443" type="curve" smooth="yes"/>
      <point x="425" y="443"/>
      <point x="462" y="412"/>
      <point x="462" y="331" type="curve" smooth="yes"/>
      <point x="462" y="0" type="line"/>
      <point x="614" y="0" type="line"/>
      <point x="614" y="55" type="line"/>
      <point x="546" y="85" type="line"/>
      <point x="546" y="402" type="line"/>
      <point x="615" y="427"/>
      <point x="655" y="443"/>
      <point x="707" y="443" type="curve" smooth="yes"/>
      <point x="773" y="443"/>
      <point x="810" y="412"/>
      <point x="810" y="331" type="curve" smooth="yes"/>
      <point x="810" y="0" type="line"/>
      <point x="962" y="0" type="line"/>
      <point x="962" y="55" type="line"/>
      <point x="894" y="85" type="line"/>
      <point x="894" y="320" type="line" smooth="yes"/>
      <point x="894" y="462"/>
      <point x="854" y="516"/>
      <point x="734" y="516" type="curve" smooth="yes"/>
    </contour>
  </outline>
</glyph>
<glyph name="z" format="1">
  <advance width="583"/>
  <unicode hex="007A"/>
  <outline>
    <contour>
      <point x="53" y="502" type="line"/>
      <point x="53" y="347" type="line"/>
      <point x="105" y="347" type="line"/>
      <point x="126" y="432" type="line"/>
      <point x="431" y="432" type="line"/>
      <point x="431" y="442" type="line"/>
      <point x="50" y="77" type="line"/>
      <point x="50" y="0" type="line"/>
      <point x="533" y="0" type="line"/>
      <point x="533" y="155" type="line"/>
      <point x="481" y="155" type="line"/>
      <point x="462" y="70" type="line"/>
      <point x="145" y="70" type="line"/>
      <point x="145" y="60" type="line"/>
      <point x="526" y="425" type="line"/>
      <point x="526" y="502" type="line"/>
    </contour>
    <contour>
      <point x="290" y="502" type="move" name="top"/>
    </contour>
  </outline>
</glyph>
<glyph name="currency" format="1">
  <advance width="627"/>
  <unicode hex="00A4"/>
  <outline>
    <contour>
      <point x="433" y="58"/>
      <point x="531" y="156"/>
      <point x="531" y="274" type="curve" smooth="yes"/>
      <point x="531" y="392"/>
      <point x="433" y="490"/>
      <point x="314" y="490" type="curve" smooth="yes"/>
      <point x="195" y="490"/>
      <point x="97" y="392"/>
      <point x="97" y="274" type="curve" smooth="yes"/>
      <point x="97" y="156"/>
      <point x="195" y="58"/>
      <point x="314" y="58" type="curve" smooth="yes"/>
    </contour>
    <contour>
      <point x="193" y="450" type="line"/>
      <point x="96" y="547" type="line"/>
      <point x="41" y="490" type="line"/>
      <point x="137" y="394" type="line"/>
    </contour>
    <contour>
      <point x="227" y="126"/>
      <point x="171" y="186"/>
      <point x="171" y="274" type="curve" smooth="yes"/>
      <point x="171" y="362"/>
      <point x="227" y="422"/>
      <point x="314" y="422" type="curve" smooth="yes"/>
      <point x="401" y="422"/>
      <point x="457" y="362"/>
      <point x="457" y="274" type="curve" smooth="yes"/>
      <point x="457" y="186"/>
      <point x="401" y="126"/>
      <point x="314" y="126" type="curve" smooth="yes"/>
    </contour>
    <contour>
      <point x="490" y="394" type="line"/>
      <point x="587" y="491" type="line"/>
      <point x="530" y="546" type="line"/>
      <point x="434" y="450" type="line"/>
    </contour>
    <contour>
      <point x="137" y="153" type="line"/>
      <point x="40" y="56" type="line"/>
      <point x="97" y="1" type="line"/>
      <point x="193" y="97" type="line"/>
    </contour>
    <contour>
      <point x="434" y="97" type="line"/>
      <point x="531" y="0" type="line"/>
      <point x="586" y="57" type="line"/>
      <point x="490" y="153" type="line"/>
    </contour>
  </outline>
</glyph>
<glyph name="plusminus" format="1">
  <advance width="582"/>
  <unicode hex="00B1"/>
  <outline>
    <contour>
      <point x="64" y="340" type="line"/>
      <point x="64" y="270" type="line"/>
      <point x="518" y="270" type="line"/>
      <point x="518" y="340" type="line"/>
    </contour>
    <contour>
      <point x="324" y="532" type="line"/>
      <point x="258" y="532" type="line"/>
      <point x="258" y="60" type="line"/>
      <point x="324" y="60" type="line"/>
    </contour>
    <contour>
      <point x="64" y="70" type="line"/>
      <point x="64" y="0" type="line"/>
      <point x="518" y="0" type="line"/>
      <point x="518" y="70" type="line"/>
    </contour>
  </outline>
</glyph>
<glyph name="idotless" format="1">
  <advance width="301"/>
  <unicode hex="0131"/>
  <outline>
    <contour>
      <point x="46" y="502" type="line"/>
      <point x="46" y="445" type="line"/>
      <point x="114" y="417" type="line"/>
      <point x="114" y="85" type="line"/>
      <point x="46" y="55" type="line"/>
      <point x="46" y="0" type="line"/>
      <point x="266" y="0" type="line"/>
      <point x="266" y="55" type="line"/>
      <point x="198" y="85" type="line"/>
      <point x="198" y="502" type="line"/>
    </contour>
    <contour>
      <point x="135" y="10" type="move" name="ogonek"/>
    </contour>
    <contour>
      <point x="139" y="502" type="move" name="top"/>
    </contour>
  </outline>
</glyph>
<glyph name="Lslash" format="1">
  <advance width="643"/>
  <unicode hex="0141"/>
  <outline>
    <contour>
      <point x="428" y="409" type="line"/>
      <point x="428" y="485" type="line"/>
      <point x="55" y="329" type="line"/>
      <point x="55" y="253" type="line"/>
    </contour>
    <contour>
      <point x="55" y="680" type="line"/>
      <point x="55" y="623" type="line"/>
      <point x="129" y="594" type="line"/>
      <point x="129" y="85" type="line"/>
      <point x="55" y="55" type="line"/>
      <point x="55" y="0" type="line"/>
      <point x="629" y="0" type="line"/>
      <point x="629" y="187" type="line"/>
      <point x="570" y="187" type="line"/>
      <point x="544" y="72" type="line"/>
      <point x="215" y="72" type="line"/>
      <point x="215" y="594" type="line"/>
      <point x="289" y="623" type="line"/>
      <point x="289" y="680" type="line"/>
    </contour>
    <contour>
      <point x="172" y="680" type="move" name="top"/>
    </contour>
    <contour>
      <point x="379" y="0" type="move" name="bottom"/>
    </contour>
    <contour>
      <point x="629" y="680" type="move" name="topright"/>
    </contour>
  </outline>
</glyph>
<glyph name="lslash" format="1">
  <advance width="301"/>
  <unicode hex="0142"/>
  <outline>
    <contour>
      <point x="286" y="477" type="line"/>
      <point x="26" y="368" type="line"/>
      <point x="26" y="294" type="line"/>
      <point x="286" y="403" type="line"/>
    </contour>
    <component base="l"/>
  </outline>
</glyph>
<glyph name="circumflex" format="1">
  <advance width="500"/>
  <unicode hex="02C6"/>
  <outline>
    <contour>
      <point x="208" y="756" type="line"/>
      <point x="63" y="572" type="line"/>
      <point x="137" y="572" type="line"/>
      <point x="262" y="683" type="line"/>
      <point x="238" y="683" type="line"/>
      <point x="363" y="572" type="line"/>
      <point x="437" y="572" type="line"/>
      <point x="292" y="756" type="line"/>
    </contour>
    <contour>
      <point x="250" y="502" type="move" name="_top"/>
    </contour>
  </outline>
</glyph>
<glyph name="ogonek" format="1">
  <advance width="500"/>
  <unicode hex="02DB"/>
  <outline>
    <contour>
      <point x="318" y="-167"/>
      <point x="291" y="-170"/>
      <point x="265" y="-170" type="curve" smooth="yes"/>
      <point x="222" y="-170"/>
      <point x="192" y="-155"/>
      <point x="192" y="-114" type="curve" smooth="yes"/>
      <point x="192" y="-73"/>
      <point x="223" y="-40"/>
      <point x="315" y="0" type="curve"/>
      <point x="232" y="0" type="line"/>
      <point x="146" y="-30"/>
      <point x="116" y="-73"/>
      <point x="116" y="-128" type="curve" smooth="yes"/>
      <point x="116" y="-204"/>
      <point x="185" y="-222"/>
      <point x="257" y="-222" type="curve" smooth="yes"/>
      <point x="292" y="-222"/>
      <point x="320" y="-218"/>
      <point x="338" y="-212" type="curve"/>
      <point x="338" y="-162" type="line"/>
    </contour>
    <contour>
      <point x="250" y="10" type="move" name="_ogonek"/>
    </contour>
  </outline>
</glyph>
<glyph name="Omega" format="1">
  <advance width="748"/>
  <unicode hex="03A9"/>
  <outline>
    <contour>
      <point x="185" y="692"/>
      <point x="75" y="593"/>
      <point x="75" y="421" type="curve" smooth="yes"/>
      <point x="75" y="278"/>
      <point x="149" y="192"/>
      <point x="248" y="162" type="curve"/>
      <point x="248" y="71" type="line"/>
      <point x="74" y="71" type="line"/>
      <point x="97" y="51" type="line"/>
      <point x="78" y="156" type="line"/>
      <point x="25" y="156" type="line"/>
      <point x="25" y="0" type="line"/>
      <point x="324" y="0" type="line"/>
      <point x="324" y="210" type="line"/>
      <point x="208" y="232"/>
      <point x="165" y="312"/>
      <point x="165" y="419" type="curve" smooth="yes"/>
      <point x="165" y="559"/>
      <point x="240" y="618"/>
      <point x="374" y="618" type="curve" smooth="yes"/>
      <point x="508" y="618"/>
      <point x="583" y="559"/>
      <point x="583" y="419" type="curve" smooth="yes"/>
      <point x="583" y="312"/>
      <point x="540" y="232"/>
      <point x="424" y="210" type="curve"/>
      <point x="424" y="0" type="line"/>
      <point x="723" y="0" type="line"/>
      <point x="723" y="156" type="line"/>
      <point x="670" y="156" type="line"/>
      <point x="651" y="51" type="line"/>
      <point x="674" y="71" type="line"/>
      <point x="500" y="71" type="line"/>
      <point x="500" y="162" type="line"/>
      <point x="599" y="192"/>
      <point x="673" y="278"/>
      <point x="673" y="421" type="curve" smooth="yes"/>
      <point x="673" y="593"/>
      <point x="564" y="692"/>
      <point x="374" y="692" type="curve" smooth="yes"/>
    </contour>
  </outline>
</glyph>
<glyph name="uu-deva" format="1">
  <advance width="676"/>
  <unicode hex="090A"/>
  <outline>
    <contour>
      <point x="639" y="54"/>
      <point x="691" y="110"/>
      <point x="691" y="217" type="curve" smooth="yes"/>
      <point x="691" y="331"/>
      <point x="633" y="387"/>
      <point x="528" y="387" type="curve" smooth="yes"/>
      <point x="427" y="387"/>
      <point x="369" y="336"/>
      <point x="369" y="234" type="curve"/>
      <point x="424" y="234" type="line"/>
      <point x="424" y="282"/>
      <point x="463" y="305"/>
      <point x="523" y="305" type="curve" smooth="yes"/>
      <point x="598" y="305"/>
      <point x="617" y="270"/>
      <point x="617" y="217" type="curve" smooth="yes"/>
      <point x="617" y="158"/>
      <point x="593" y="136"/>
      <point x="532" y="136" type="curve" smooth="yes"/>
      <point x="522" y="136"/>
      <point x="510" y="136"/>
      <point x="495" y="138" type="curve"/>
      <point x="495" y="58" type="line"/>
      <point x="510" y="55"/>
      <point x="529" y="54"/>
      <point x="542" y="54" type="curve" smooth="yes"/>
    </contour>
    <contour>
      <point x="686" y="604" type="line"/>
      <point x="686" y="680" type="line"/>
      <point x="496" y="680" type="line"/>
      <point x="496" y="604" type="line"/>
    </contour>
    <component base="u-deva"/>
  </outline>
</glyph>
<glyph name="nga-deva" format="1">
  <advance width="665"/>
  <unicode hex="0919"/>
  <outline>
    <contour>
      <point x="528" y="680" type="line"/>
      <point x="528" y="604" type="line"/>
      <point x="665" y="604" type="line"/>
      <point x="665" y="680" type="line"/>
    </contour>
    <component base="dda-deva"/>
    <component base="nukta-deva" xOffset="435" yOffset="494"/>
  </outline>
</glyph>
<glyph name="pa-deva" format="1">
  <advance width="589"/>
  <unicode hex="092A"/>
  <outline>
    <contour>
      <point x="342" y="165"/>
      <point x="392" y="174"/>
      <point x="435" y="193" type="curve"/>
      <point x="435" y="267" type="line"/>
      <point x="392" y="253"/>
      <point x="341" y="247"/>
      <point x="295" y="247" type="curve" smooth="yes"/>
      <point x="192" y="247"/>
      <point x="149" y="277"/>
      <point x="149" y="365" type="curve" smooth="yes"/>
      <point x="149" y="614" type="line"/>
      <point x="81" y="614" type="line"/>
      <point x="81" y="368" type="line" smooth="yes"/>
      <point x="81" y="222"/>
      <point x="159" y="165"/>
      <point x="290" y="165" type="curve" smooth="yes"/>
    </contour>
    <contour>
      <point x="493" y="0" type="line"/>
      <point x="493" y="614" type="line"/>
      <point x="425" y="614" type="line"/>
      <point x="425" y="0" type="line"/>
    </contour>
    <contour>
      <point x="599" y="604" type="line"/>
      <point x="599" y="680" type="line"/>
      <point x="-10" y="680" type="line"/>
      <point x="-10" y="604" type="line"/>
    </contour>
    <contour>
      <point x="149" y="65" type="move" name="nukta"/>
    </contour>
    <contour>
      <point x="459" y="0" type="move" name="bottom"/>
    </contour>
    <contour>
      <point x="459" y="680" type="move" name="top"/>
    </contour>
  </outline>
</glyph>
<glyph name="ya-deva" format="1">
  <advance width="577"/>
  <unicode hex="092F"/>
  <outline>
    <contour>
      <point x="330" y="165"/>
      <point x="380" y="174"/>
      <point x="423" y="193" type="curve"/>
      <point x="423" y="267" type="line"/>
      <point x="379" y="253"/>
      <point x="332" y="247"/>
      <point x="282" y="247" type="curve" smooth="yes"/>
      <point x="179" y="247"/>
      <point x="119" y="270"/>
      <point x="97" y="340" type="curve"/>
      <point x="193" y="340"/>
      <point x="241" y="381"/>
      <point x="241" y="477" type="curve" smooth="yes"/>
      <point x="241" y="529"/>
      <point x="227" y="567"/>
      <point x="196" y="614" type="curve"/>
      <point x="125" y="614" type="line"/>
      <point x="157" y="568"/>
      <point x="169" y="529"/>
      <point x="169" y="491" type="curve" smooth="yes"/>
      <point x="169" y="435"/>
      <point x="144" y="412"/>
      <point x="57" y="412" type="curve" smooth="yes"/>
      <point x="29" y="412" type="line"/>
      <point x="29" y="397" type="line" smooth="yes"/>
      <point x="29" y="238"/>
      <point x="121" y="165"/>
      <point x="276" y="165" type="curve" smooth="yes"/>
    </contour>
    <contour>
      <point x="481" y="0" type="line"/>
      <point x="481" y="614" type="line"/>
      <point x="413" y="614" type="line"/>
      <point x="413" y="0" type="line"/>
    </contour>
    <contour>
      <point x="587" y="604" type="line"/>
      <point x="587" y="680" type="line"/>
      <point x="-10" y="680" type="line"/>
      <point x="-10" y="604" type="line"/>
    </contour>
    <contour>
      <point x="97" y="65" type="move" name="nukta"/>
    </contour>
    <contour>
      <point x="447" y="0" type="move" name="bottom"/>
    </contour>
    <contour>
      <point x="447" y="680" type="move" name="top"/>
    </contour>
  </outline>
</glyph>
<glyph name="anudatta-deva" format="1">
  <advance width="0"/>
  <unicode hex="0952"/>
  <outline>
    <contour>
      <point x="-96" y="-69" type="line"/>
      <point x="-442" y="-69" type="line"/>
      <point x="-442" y="-131" type="line"/>
      <point x="-96" y="-131" type="line"/>
    </contour>
    <contour>
      <point x="-269" y="0" type="move" name="_bottom"/>
    </contour>
  </outline>
</glyph>
<glyph name="grave-deva" format="1">
  <advance width="250"/>
  <unicode hex="0953"/>
  <outline>
    <component base="acute-deva" xOffset="-506" xScale="-1"/>
    <contour>
      <point x="-131" y="680" type="move" name="_top"/>
    </contour>
  </outline>
</glyph>
<glyph name="zero-deva" format="1">
  <advance width="564"/>
  <unicode hex="0966"/>
  <outline>
    <contour>
      <point x="422" y="77"/>
      <point x="513" y="154"/>
      <point x="513" y="320" type="curve" smooth="yes"/>
      <point x="513" y="486"/>
      <point x="422" y="563"/>
      <point x="282" y="563" type="curve" smooth="yes"/>
      <point x="142" y="563"/>
      <point x="51" y="486"/>
      <point x="51" y="320" type="curve" smooth="yes"/>
      <point x="51" y="154"/>
      <point x="142" y="77"/>
      <point x="282" y="77" type="curve" smooth="yes"/>
    </contour>
    <contour>
      <point x="164" y="159"/>
      <point x="123" y="203"/>
      <point x="123" y="320" type="curve" smooth="yes"/>
      <point x="123" y="437"/>
      <point x="164" y="481"/>
      <point x="282" y="481" type="curve" smooth="yes"/>
      <point x="400" y="481"/>
      <point x="441" y="437"/>
      <point x="441" y="320" type="curve" smooth="yes"/>
      <point x="441" y="203"/>
      <point x="400" y="159"/>
      <point x="282" y="159" type="curve" smooth="yes"/>
    </contour>
  </outline>
</glyph>
<glyph name="one-deva" format="1">
  <advance width="465"/>
  <unicode hex="0967"/>
  <outline>
    <contour>
      <point x="350" y="406" type="line"/>
      <point x="319" y="379"/>
      <point x="280" y="368"/>
      <point x="226" y="366" type="curve" smooth="yes"/>
      <point x="143" y="366"/>
      <point x="110" y="397"/>
      <point x="110" y="482" type="curve" smooth="yes"/>
      <point x="110" y="567"/>
      <point x="143" y="598"/>
      <point x="228" y="598" type="curve" smooth="yes"/>
      <point x="318" y="598"/>
      <point x="340" y="565"/>
      <point x="340" y="457" type="curve" smooth="yes"/>
      <point x="337" y="333"/>
      <point x="311" y="200"/>
      <point x="220" y="0" type="curve"/>
      <point x="298" y="0" type="line"/>
      <point x="369" y="159"/>
      <point x="412" y="331"/>
      <point x="412" y="460" type="curve" smooth="yes"/>
      <point x="412" y="622"/>
      <point x="340" y="680"/>
      <point x="227" y="680" type="curve" smooth="yes"/>
      <point x="104" y="680"/>
      <point x="38" y="612"/>
      <point x="38" y="482" type="curve" smooth="yes"/>
      <point x="38" y="348"/>
      <point x="108" y="284"/>
      <point x="223" y="284" type="curve" smooth="yes"/>
      <point x="278" y="284"/>
      <point x="323" y="298"/>
      <point x="350" y="319" type="curve"/>
    </contour>
  </outline>
</glyph>
<glyph name="abbreviation-deva" format="1">
  <advance width="504"/>
  <unicode hex="0970"/>
  <outline>
    <contour>
      <point x="150" y="540"/>
      <point x="72" y="467"/>
      <point x="72" y="360" type="curve" smooth="yes"/>
      <point x="72" y="253"/>
      <point x="150" y="180"/>
      <point x="252" y="180" type="curve" smooth="yes"/>
      <point x="354" y="180"/>
      <point x="432" y="253"/>
      <point x="432" y="360" type="curve" smooth="yes"/>
      <point x="432" y="467"/>
      <point x="354" y="540"/>
      <point x="252" y="540" type="curve" smooth="yes"/>
    </contour>
    <contour>
      <point x="362" y="294"/>
      <point x="322" y="256"/>
      <point x="252" y="256" type="curve" smooth="yes"/>
      <point x="182" y="256"/>
      <point x="142" y="294"/>
      <point x="142" y="360" type="curve" smooth="yes"/>
      <point x="142" y="426"/>
      <point x="182" y="464"/>
      <point x="252" y="464" type="curve" smooth="yes"/>
      <point x="322" y="464"/>
      <point x="362" y="426"/>
      <point x="362" y="360" type="curve" smooth="yes"/>
    </contour>
  </outline>
</glyph>
<glyph name="bba-deva" format="1">
  <advance width="594"/>
  <unicode hex="097F"/>
  <outline>
    <contour>
      <point x="9" y="26" type="line"/>
      <point x="9" y="-36" type="line"/>
      <point x="498" y="-36" type="line"/>
      <point x="498" y="26" type="line"/>
    </contour>
    <component base="ba-deva"/>
  </outline>
</glyph>
<glyph name="rupeeIndian" format="1">
  <advance width="553"/>
  <unicode hex="20B9"/>
  <outline>
    <contour>
      <point x="503" y="437" type="line"/>
      <point x="503" y="513" type="line"/>
      <point x="50" y="513" type="line"/>
      <point x="50" y="437" type="line"/>
    </contour>
    <contour>
      <point x="503" y="604" type="line"/>
      <point x="503" y="680" type="line"/>
      <point x="184" y="680" type="line"/>
      <point x="184" y="604" type="line"/>
    </contour>
    <contour>
      <point x="117" y="270" type="line"/>
      <point x="194" y="270" type="line" smooth="yes"/>
      <point x="325" y="270"/>
      <point x="403" y="329"/>
      <point x="403" y="475" type="curve" smooth="yes"/>
      <point x="403" y="629"/>
      <point x="325" y="680"/>
      <point x="194" y="680" type="curve" smooth="yes"/>
      <point x="50" y="680" type="line"/>
      <point x="50" y="604" type="line"/>
      <point x="195" y="604" type="line" smooth="yes"/>
      <point x="295" y="604"/>
      <point x="331" y="575"/>
      <point x="331" y="475" type="curve" smooth="yes"/>
      <point x="331" y="367"/>
      <point x="285" y="346"/>
      <point x="185" y="346" type="curve" smooth="yes"/>
      <point x="50" y="346" type="line"/>
      <point x="50" y="270" type="line"/>
      <point x="316" y="0" type="line"/>
      <point x="418" y="0" type="line"/>
      <point x="418" y="1" type="line"/>
      <point x="117" y="300" type="line"/>
    </contour>
  </outline>
</glyph>
<glyph name="anusvara-deva.imatra" format="1">
  <advance width="250"/>
  <outline>
    <contour>
      <point x="91" y="1011"/>
      <point x="67" y="989"/>
      <point x="67" y="948" type="curve" smooth="yes"/>
      <point x="67" y="907"/>
      <point x="91" y="885"/>
      <point x="130" y="885" type="curve" smooth="yes"/>
      <point x="169" y="885"/>
      <point x="193" y="907"/>
      <point x="193" y="948" type="curve" smooth="yes"/>
      <point x="193" y="989"/>
      <point x="169" y="1011"/>
      <point x="130" y="1011" type="curve" smooth="yes"/>
    </contour>
    <contour>
      <point x="130" y="680" type="move" name="_top"/>
    </contour>
  </outline>
</glyph>
<glyph name="bh_la-deva.loclMAR" format="1">
  <advance width="663"/>
  <outline>
    <contour>
      <point x="567" y="40" type="line"/>
      <point x="567" y="614" type="line"/>
      <point x="505" y="614" type="line"/>
      <point x="505" y="40" type="line"/>
    </contour>
    <contour>
      <point x="673" y="604" type="line"/>
      <point x="673" y="680" type="line"/>
      <point x="352" y="680" type="line"/>
      <point x="352" y="604" type="line"/>
    </contour>
    <contour>
      <point x="198" y="272" type="line"/>
      <point x="527" y="272" type="line"/>
      <point x="527" y="344" type="line"/>
      <point x="185" y="344" type="line" smooth="yes"/>
      <point x="128" y="344"/>
      <point x="94" y="317"/>
      <point x="94" y="256" type="curve" smooth="yes"/>
      <point x="94" y="190"/>
      <point x="133" y="166"/>
      <point x="180" y="166" type="curve" smooth="yes"/>
      <point x="226" y="166"/>
      <point x="260" y="190"/>
      <point x="260" y="258" type="curve" smooth="yes"/>
      <point x="260" y="559" type="line" smooth="yes"/>
      <point x="260" y="654"/>
      <point x="218" y="688"/>
      <point x="149" y="688" type="curve" smooth="yes"/>
      <point x="75" y="688"/>
      <point x="35" y="648"/>
      <point x="35" y="570" type="curve" smooth="yes"/>
      <point x="35" y="495"/>
      <point x="72" y="451"/>
      <point x="147" y="451" type="curve"/>
      <point x="147" y="519" type="line"/>
      <point x="116" y="519"/>
      <point x="93" y="531"/>
      <point x="93" y="569" type="curve" smooth="yes"/>
      <point x="93" y="600"/>
      <point x="108" y="618"/>
      <point x="146" y="618" type="curve" smooth="yes"/>
      <point x="181" y="618"/>
      <point x="198" y="603"/>
      <point x="198" y="548" type="curve" smooth="yes"/>
    </contour>
    <component base="la-deva.loclMAR.post" xOffset="48"/>
  </outline>
</glyph>
<glyph name="candraBindu-deva.reph" format="1">
  <advance width="250"/>
  <outline>
    <contour>
      <point x="196" y="917"/>
      <point x="177" y="899"/>
      <point x="177" y="866" type="curve" smooth="yes"/>
      <point x="177" y="834"/>
      <point x="196" y="816"/>
      <point x="228" y="816" type="curve" smooth="yes"/>
      <point x="260" y="816"/>
      <point x="279" y="834"/>
      <point x="279" y="866" type="curve" smooth="yes"/>
      <point x="279" y="899"/>
      <point x="260" y="917"/>
      <point x="228" y="917" type="curve" smooth="yes"/>
    </contour>
    <contour>
      <point x="314" y="720"/>
      <point x="352" y="756"/>
      <point x="352" y="829" type="curve"/>
      <point x="304" y="829" type="line"/>
      <point x="304" y="794"/>
      <point x="283" y="776"/>
      <point x="228" y="776" type="curve" smooth="yes"/>
      <point x="176" y="776"/>
      <point x="152" y="792"/>
      <point x="152" y="829" type="curve"/>
      <point x="104" y="829" type="line"/>
      <point x="104" y="758"/>
      <point x="140" y="720"/>
      <point x="228" y="720" type="curve" smooth="yes"/>
    </contour>
    <contour>
      <point x="-34" y="680" type="move" name="_top"/>
    </contour>
  </outline>
</glyph>
<glyph name="d_ba-deva" format="1">
  <advance width="548"/>
  <outline>
    <contour>
      <point x="127" y="19" type="line"/>
      <point x="418" y="-107" type="line"/>
      <point x="418" y="-48" type="line"/>
      <point x="168" y="60" type="line"/>
    </contour>
    <component base="d_va-deva"/>
  </outline>
</glyph>
<glyph name="d_gha_uMatra-deva" format="1">
  <advance width="618"/>
  <outline>
    <contour>
      <point x="438" y="-78"/>
      <point x="465" y="-72"/>
      <point x="492" y="-72" type="curve" smooth="yes"/>
      <point x="539" y="-72"/>
      <point x="560" y="-90"/>
      <point x="560" y="-133" type="curve" smooth="yes"/>
      <point x="560" y="-182"/>
      <point x="533" y="-201"/>
      <point x="468" y="-201" type="curve" smooth="yes"/>
      <point x="420" y="-201"/>
      <point x="357" y="-191"/>
      <point x="285" y="-161" type="curve"/>
      <point x="285" y="-238" type="line"/>
      <point x="338" y="-260"/>
      <point x="415" y="-273"/>
      <point x="468" y="-273" type="curve" smooth="yes"/>
      <point x="573" y="-273"/>
      <point x="628" y="-221"/>
      <point x="628" y="-133" type="curve" smooth="yes"/>
      <point x="628" y="-50"/>
      <point x="580" y="0"/>
      <point x="498" y="0" type="curve" smooth="yes"/>
      <point x="469" y="0"/>
      <point x="435" y="-6"/>
      <point x="408" y="-18" type="curve"/>
      <point x="408" y="-92" type="line"/>
    </contour>
    <component base="d_gha-deva"/>
  </outline>
</glyph>
<glyph name="d_ra_ya-deva" format="1">
  <advance width="621"/>
  <outline>
    <contour>
      <point x="369" y="77" type="line"/>
      <point x="169" y="-100" type="line"/>
      <point x="277" y="-100" type="line"/>
      <point x="467" y="77" type="line"/>
    </contour>
    <component base="d_ya-deva"/>
  </outline>
</glyph>
<glyph name="da_rVocalicMatra-deva" format="1">
  <advance width="543"/>
  <outline>
    <component base="da-deva"/>
    <component base="rVocalicMatra-deva" xOffset="302"/>
    <contour>
      <point x="71" y="0" type="move" name="nukta"/>
    </contour>
  </outline>
</glyph>
<glyph name="ddh_na-deva" format="1">
  <advance width="494"/>
  <note>
	dDdhNa
  </note>
  <outline>
    <contour>
      <point x="177" y="-98" type="line"/>
      <point x="135" y="-112" type="line"/>
      <point x="368" y="-112" type="line"/>
      <point x="368" y="-40" type="line"/>
      <point x="130" y="-40" type="line" smooth="yes"/>
      <point x="64" y="-40"/>
      <point x="39" y="-67"/>
      <point x="39" y="-121" type="curve" smooth="yes"/>
      <point x="39" y="-176"/>
      <point x="65" y="-202"/>
      <point x="131" y="-203" type="curve"/>
    </contour>
    <contour>
      <point x="419" y="-359" type="line"/>
      <point x="419" y="168" type="line"/>
      <point x="357" y="168" type="line"/>
      <point x="357" y="-359" type="line"/>
    </contour>
    <component base="ddha-deva.post"/>
    <contour>
      <point x="104" y="-294" type="move" name="nukta"/>
    </contour>
    <contour>
      <point x="388" y="-359" type="move" name="bottom"/>
    </contour>
  </outline>
</glyph>
<glyph name="ddh_ya-deva" format="1">
  <advance width="1130"/>
  <outline>
    <contour>
      <point x="1034" y="0" type="line"/>
      <point x="1034" y="614" type="line"/>
      <point x="966" y="614" type="line"/>
      <point x="966" y="0" type="line"/>
    </contour>
    <contour>
      <point x="1140" y="604" type="line"/>
      <point x="1140" y="680" type="line"/>
      <point x="582" y="680" type="line"/>
      <point x="582" y="604" type="line"/>
    </contour>
    <contour>
      <point x="976" y="192" type="line"/>
      <point x="941" y="184"/>
      <point x="904" y="180"/>
      <point x="861" y="180" type="curve" smooth="yes"/>
      <point x="768" y="180"/>
      <point x="692" y="199"/>
      <point x="668" y="281" type="curve"/>
      <point x="685" y="281" type="line" smooth="yes"/>
      <point x="783" y="281"/>
      <point x="824" y="312"/>
      <point x="824" y="400" type="curve" smooth="yes"/>
      <point x="824" y="472"/>
      <point x="796" y="501"/>
      <point x="730" y="501" type="curve" smooth="yes"/>
      <point x="483" y="501" type="line"/>
      <point x="483" y="423" type="line"/>
      <point x="700" y="423" type="line" smooth="yes"/>
      <point x="733" y="423"/>
      <point x="750" y="418"/>
      <point x="750" y="387" type="curve" smooth="yes"/>
      <point x="750" y="355"/>
      <point x="732" y="345"/>
      <point x="685" y="345" type="curve" smooth="yes"/>
      <point x="598" y="345" type="line"/>
      <point x="598" y="330" type="line" smooth="yes"/>
      <point x="598" y="171"/>
      <point x="699" y="98"/>
      <point x="858" y="98" type="curve" smooth="yes"/>
      <point x="904" y="98"/>
      <point x="940" y="104"/>
      <point x="976" y="115" type="curve"/>
    </contour>
    <component base="ddha-deva"/>
    <contour>
      <point x="1000" y="680" type="move" name="top"/>
    </contour>
    <contour>
      <point x="1000" y="0" type="move" name="bottom"/>
    </contour>
  </outline>
</glyph>
<glyph name="dieresis.case" format="1">
  <advance width="500"/>
  <outline>
    <contour>
      <point x="164" y="745"/>
      <point x="190" y="771"/>
      <point x="190" y="816" type="curve" smooth="yes"/>
      <point x="190" y="861"/>
      <point x="164" y="887"/>
      <point x="119" y="887" type="curve" smooth="yes"/>
      <point x="74" y="887"/>
      <point x="48" y="861"/>
      <point x="48" y="816" type="curve" smooth="yes"/>
      <point x="48" y="771"/>
      <point x="74" y="745"/>
      <point x="119" y="745" type="curve" smooth="yes"/>
    </contour>
    <contour>
      <point x="426" y="745"/>
      <point x="452" y="771"/>
      <point x="452" y="816" type="curve" smooth="yes"/>
      <point x="452" y="861"/>
      <point x="426" y="887"/>
      <point x="381" y="887" type="curve" smooth="yes"/>
      <point x="336" y="887"/>
      <point x="310" y="861"/>
      <point x="310" y="816" type="curve" smooth="yes"/>
      <point x="310" y="771"/>
      <point x="336" y="745"/>
      <point x="381" y="745" type="curve" smooth="yes"/>
    </contour>
    <contour>
      <point x="250" y="680" type="move" name="_top"/>
    </contour>
  </outline>
</glyph>
<glyph name="g_ra-deva" format="1">
  <advance width="318"/>
  <outline>
    <contour>
      <point x="188" y="0" type="line"/>
      <point x="459" y="228" type="line"/>
      <point x="430" y="297" type="line"/>
      <point x="76" y="0" type="line"/>
    </contour>
    <component base="g-deva"/>
    <contour>
      <point x="0" y="82" type="move" name="nukta"/>
    </contour>
  </outline>
</glyph>
<glyph name="gh_ra-deva" format="1">
  <advance width="353"/>
  <note>
	dGhR.half
  </note>
  <outline>
    <contour>
      <point x="175" y="-100" type="line"/>
      <point x="437" y="150" type="line"/>
      <point x="337" y="150" type="line"/>
      <point x="70" y="-100" type="line"/>
    </contour>
    <component base="gh-deva"/>
    <contour>
      <point x="102" y="40" type="move" name="nukta"/>
    </contour>
  </outline>
</glyph>
<glyph name="h_ma-deva" format="1">
  <advance width="786"/>
  <outline>
    <contour>
      <point x="622" y="614" type="line"/>
      <point x="622" y="-16" type="line"/>
      <point x="690" y="-16" type="line"/>
      <point x="690" y="614" type="line"/>
    </contour>
    <contour>
      <point x="-10" y="680" type="line"/>
      <point x="-10" y="604" type="line"/>
      <point x="796" y="604" type="line"/>
      <point x="796" y="680" type="line"/>
    </contour>
    <contour>
      <point x="-10" y="680" type="line"/>
      <point x="-10" y="604" type="line"/>
      <point x="796" y="604" type="line"/>
      <point x="796" y="680" type="line"/>
    </contour>
    <contour>
      <point x="374" y="614" type="line"/>
      <point x="374" y="484" type="line"/>
      <point x="393" y="501" type="line"/>
      <point x="195" y="501" type="line" smooth="yes"/>
      <point x="93" y="501"/>
      <point x="52" y="452"/>
      <point x="52" y="361" type="curve" smooth="yes"/>
      <point x="52" y="264"/>
      <point x="100" y="217"/>
      <point x="193" y="217" type="curve"/>
      <point x="193" y="285" type="line"/>
      <point x="143" y="285"/>
      <point x="124" y="297"/>
      <point x="124" y="355" type="curve" smooth="yes"/>
      <point x="124" y="407"/>
      <point x="140" y="423"/>
      <point x="203" y="423" type="curve" smooth="yes"/>
      <point x="442" y="423" type="line"/>
      <point x="442" y="614" type="line"/>
    </contour>
    <contour>
      <point x="393" y="229"/>
      <point x="413" y="207"/>
      <point x="413" y="154" type="curve" smooth="yes"/>
      <point x="413" y="84" type="line"/>
      <point x="632" y="84" type="line"/>
      <point x="632" y="154" type="line"/>
      <point x="395" y="154" type="line" smooth="yes"/>
      <point x="353" y="154"/>
      <point x="311" y="134"/>
      <point x="311" y="68" type="curve" smooth="yes"/>
      <point x="311" y="10"/>
      <point x="344" y="-12"/>
      <point x="390" y="-12" type="curve" smooth="yes"/>
      <point x="437" y="-12"/>
      <point x="479" y="11"/>
      <point x="479" y="71" type="curve" smooth="yes"/>
      <point x="479" y="154" type="line" smooth="yes"/>
      <point x="479" y="260"/>
      <point x="418" y="305"/>
      <point x="284" y="305" type="curve" smooth="yes"/>
      <point x="120" y="305"/>
      <point x="42" y="237"/>
      <point x="42" y="80" type="curve" smooth="yes"/>
      <point x="42" y="-140"/>
      <point x="194" y="-206"/>
      <point x="430" y="-206" type="curve"/>
      <point x="430" y="-124" type="line"/>
      <point x="236" y="-122"/>
      <point x="112" y="-106"/>
      <point x="112" y="78" type="curve" smooth="yes"/>
      <point x="112" y="186"/>
      <point x="155" y="229"/>
      <point x="294" y="229" type="curve" smooth="yes"/>
    </contour>
    <contour>
      <point x="42" y="-206" type="move" name="nukta"/>
    </contour>
    <contour>
      <point x="370" y="-176" type="move" name="bottom"/>
    </contour>
    <contour>
      <point x="656" y="680" type="move" name="top"/>
    </contour>
  </outline>
</glyph>
<glyph name="ha_uMatra-deva" format="1">
  <advance width="528"/>
  <outline>
    <contour>
      <point x="538" y="604" type="line"/>
      <point x="538" y="680" type="line"/>
      <point x="-10" y="680" type="line"/>
      <point x="-10" y="604" type="line"/>
    </contour>
    <contour>
      <point x="538" y="604" type="line"/>
      <point x="538" y="680" type="line"/>
      <point x="-10" y="680" type="line"/>
      <point x="-10" y="604" type="line"/>
    </contour>
    <contour>
      <point x="374" y="614" type="line"/>
      <point x="374" y="484" type="line"/>
      <point x="393" y="501" type="line"/>
      <point x="195" y="501" type="line" smooth="yes"/>
      <point x="93" y="501"/>
      <point x="52" y="452"/>
      <point x="52" y="361" type="curve" smooth="yes"/>
      <point x="52" y="264"/>
      <point x="100" y="217"/>
      <point x="193" y="217" type="curve"/>
      <point x="193" y="285" type="line"/>
      <point x="143" y="285"/>
      <point x="124" y="297"/>
      <point x="124" y="355" type="curve" smooth="yes"/>
      <point x="124" y="407"/>
      <point x="140" y="423"/>
      <point x="203" y="423" type="curve" smooth="yes"/>
      <point x="442" y="423" type="line"/>
      <point x="442" y="614" type="line"/>
    </contour>
    <contour>
      <point x="219" y="-182"/>
      <point x="361" y="-139"/>
      <point x="410" y="-170" type="curve" smooth="yes"/>
      <point x="428" y="-181"/>
      <point x="430" y="-201"/>
      <point x="430" y="-216" type="curve" smooth="yes"/>
      <point x="430" y="-265"/>
      <point x="409" y="-285"/>
      <point x="360" y="-285" type="curve" smooth="yes"/>
      <point x="328" y="-285"/>
      <point x="295" y="-276"/>
      <point x="251" y="-256" type="curve"/>
      <point x="251" y="-330" type="line"/>
      <point x="289" y="-347"/>
      <point x="331" y="-357"/>
      <point x="367" y="-357" type="curve" smooth="yes"/>
      <point x="447" y="-357"/>
      <point x="492" y="-307"/>
      <point x="492" y="-216" type="curve" smooth="yes"/>
      <point x="492" y="-173"/>
      <point x="482" y="-139"/>
      <point x="455" y="-117" type="curve" smooth="yes"/>
      <point x="385" y="-58"/>
      <point x="249" y="-111"/>
      <point x="170" y="-41" type="curve" smooth="yes"/>
      <point x="140" y="-14"/>
      <point x="124" y="25"/>
      <point x="124" y="84" type="curve" smooth="yes"/>
      <point x="124" y="182"/>
      <point x="167" y="225"/>
      <point x="298" y="225" type="curve" smooth="yes"/>
      <point x="382" y="225"/>
      <point x="408" y="207"/>
      <point x="408" y="161" type="curve" smooth="yes"/>
      <point x="408" y="117"/>
      <point x="384" y="105"/>
      <point x="308" y="105" type="curve"/>
      <point x="308" y="23" type="line"/>
      <point x="421" y="23"/>
      <point x="480" y="65"/>
      <point x="480" y="164" type="curve" smooth="yes"/>
      <point x="480" y="261"/>
      <point x="423" y="307"/>
      <point x="296" y="307" type="curve" smooth="yes"/>
      <point x="138" y="307"/>
      <point x="52" y="236"/>
      <point x="52" y="83" type="curve" smooth="yes"/>
      <point x="52" y="0"/>
      <point x="77" y="-57"/>
      <point x="122" y="-97" type="curve" smooth="yes"/>
    </contour>
    <contour>
      <point x="52" y="-151" type="move" name="nukta"/>
    </contour>
    <contour>
      <point x="409" y="680" type="move" name="top"/>
    </contour>
  </outline>
</glyph>
<glyph name="ha_uuMatra-deva" format="1">
  <advance width="528"/>
  <outline>
    <contour>
      <point x="308" y="-366"/>
      <point x="350" y="-356"/>
      <point x="384" y="-339" type="curve"/>
      <point x="384" y="-265" type="line"/>
      <point x="345" y="-285"/>
      <point x="310" y="-294"/>
      <point x="277" y="-294" type="curve" smooth="yes"/>
      <point x="229" y="-294"/>
      <point x="207" y="-275"/>
      <point x="207" y="-234" type="curve" smooth="yes"/>
      <point x="207" y="-186"/>
      <point x="236" y="-165"/>
      <point x="304" y="-165" type="curve" smooth="yes"/>
      <point x="381" y="-165"/>
      <point x="459" y="-192"/>
      <point x="561" y="-251" type="curve"/>
      <point x="561" y="-173" type="line"/>
      <point x="461" y="-112"/>
      <point x="420" y="-106"/>
      <point x="326" y="-93" type="curve" smooth="yes"/>
      <point x="217" y="-78"/>
      <point x="124" y="-61"/>
      <point x="124" y="84" type="curve" smooth="yes"/>
      <point x="124" y="182"/>
      <point x="167" y="225"/>
      <point x="298" y="225" type="curve" smooth="yes"/>
      <point x="382" y="225"/>
      <point x="408" y="207"/>
      <point x="408" y="161" type="curve" smooth="yes"/>
      <point x="408" y="117"/>
      <point x="384" y="105"/>
      <point x="308" y="105" type="curve"/>
      <point x="308" y="23" type="line"/>
      <point x="421" y="23"/>
      <point x="480" y="65"/>
      <point x="480" y="164" type="curve" smooth="yes"/>
      <point x="480" y="261"/>
      <point x="423" y="307"/>
      <point x="295" y="307" type="curve" smooth="yes"/>
      <point x="138" y="307"/>
      <point x="52" y="237"/>
      <point x="52" y="82" type="curve" smooth="yes"/>
      <point x="52" y="-30"/>
      <point x="97" y="-97"/>
      <point x="194" y="-137" type="curve"/>
      <point x="192" y="-124" type="line"/>
      <point x="158" y="-147"/>
      <point x="139" y="-184"/>
      <point x="139" y="-233" type="curve" smooth="yes"/>
      <point x="139" y="-314"/>
      <point x="190" y="-366"/>
      <point x="272" y="-366" type="curve" smooth="yes"/>
    </contour>
    <contour>
      <point x="374" y="614" type="line"/>
      <point x="374" y="484" type="line"/>
      <point x="393" y="501" type="line"/>
      <point x="195" y="501" type="line" smooth="yes"/>
      <point x="93" y="501"/>
      <point x="52" y="452"/>
      <point x="52" y="361" type="curve" smooth="yes"/>
      <point x="52" y="264"/>
      <point x="100" y="217"/>
      <point x="193" y="217" type="curve"/>
      <point x="193" y="285" type="line"/>
      <point x="143" y="285"/>
      <point x="124" y="297"/>
      <point x="124" y="355" type="curve" smooth="yes"/>
      <point x="124" y="407"/>
      <point x="140" y="423"/>
      <point x="203" y="423" type="curve" smooth="yes"/>
      <point x="442" y="423" type="line"/>
      <point x="442" y="614" type="line"/>
    </contour>
    <contour>
      <point x="-10" y="680" type="line"/>
      <point x="-10" y="604" type="line"/>
      <point x="538" y="604" type="line"/>
      <point x="538" y="680" type="line"/>
    </contour>
    <contour>
      <point x="52" y="-151" type="move" name="nukta"/>
    </contour>
    <contour>
      <point x="408" y="680" type="move" name="top"/>
    </contour>
  </outline>
</glyph>
<glyph name="iMatra-deva.07" format="1">
  <advance width="260"/>
  <outline>
    <contour>
      <point x="167" y="993"/>
      <point x="69" y="938"/>
      <point x="69" y="797" type="curve" smooth="yes"/>
      <point x="69" y="752"/>
      <point x="79" y="711"/>
      <point x="98" y="670" type="curve"/>
      <point x="163" y="670" type="line"/>
      <point x="147" y="704"/>
      <point x="137" y="742"/>
      <point x="137" y="788" type="curve" smooth="yes"/>
      <point x="137" y="890"/>
      <point x="191" y="917"/>
      <point x="426" y="917" type="curve" smooth="yes"/>
      <point x="710" y="917"/>
      <point x="874" y="879"/>
      <point x="1168" y="739" type="curve"/>
      <point x="1168" y="809" type="line"/>
      <point x="915" y="938"/>
      <point x="688" y="993"/>
      <point x="426" y="993" type="curve" smooth="yes"/>
    </contour>
    <component base="aaMatra-deva"/>
    <contour>
      <point x="1148" y="739" type="move" name="imatra"/>
    </contour>
    <contour>
      <point x="1134" y="809" type="move" name="top"/>
    </contour>
  </outline>
</glyph>
<glyph name="j_ny-deva" format="1">
  <advance width="457"/>
  <outline>
    <contour>
      <point x="467" y="604" type="line"/>
      <point x="467" y="680" type="line"/>
      <point x="-10" y="680" type="line"/>
      <point x="-10" y="604" type="line"/>
    </contour>
    <contour>
      <point x="183" y="180"/>
      <point x="141" y="200"/>
      <point x="117" y="238" type="curve"/>
      <point x="45" y="238" type="line"/>
      <point x="45" y="0" type="line"/>
      <point x="113" y="0" type="line"/>
      <point x="113" y="201" type="line"/>
      <point x="143" y="201" type="line"/>
      <point x="100" y="324" type="line"/>
      <point x="38" y="324"/>
      <point x="12" y="303"/>
      <point x="12" y="251" type="curve" smooth="yes"/>
      <point x="12" y="196"/>
      <point x="41" y="161"/>
      <point x="90" y="135" type="curve" smooth="yes"/>
      <point x="132" y="113"/>
      <point x="184" y="98"/>
      <point x="246" y="98" type="curve" smooth="yes"/>
      <point x="366" y="98"/>
      <point x="423" y="156"/>
      <point x="423" y="272" type="curve" smooth="yes"/>
      <point x="423" y="312"/>
      <point x="416" y="345"/>
      <point x="400" y="384" type="curve"/>
      <point x="385" y="360" type="line"/>
      <point x="548" y="360" type="line"/>
      <point x="548" y="438" type="line"/>
      <point x="319" y="438" type="line"/>
      <point x="319" y="390" type="line"/>
      <point x="340" y="365"/>
      <point x="351" y="327"/>
      <point x="351" y="288" type="curve" smooth="yes"/>
      <point x="351" y="214"/>
      <point x="311" y="180"/>
      <point x="239" y="180" type="curve" smooth="yes"/>
    </contour>
    <contour>
      <point x="65" y="-120" type="move" name="nukta"/>
    </contour>
  </outline>
</glyph>
<glyph name="k_ca-deva" format="1">
  <advance width="1273"/>
  <outline>
    <contour>
      <point x="306" y="110"/>
      <point x="350" y="126"/>
      <point x="393" y="150" type="curve"/>
      <point x="393" y="218" type="line"/>
      <point x="347" y="198"/>
      <point x="310" y="192"/>
      <point x="252" y="192" type="curve" smooth="yes"/>
      <point x="143" y="192"/>
      <point x="112" y="214"/>
      <point x="112" y="302" type="curve" smooth="yes"/>
      <point x="112" y="392"/>
      <point x="144" y="414"/>
      <point x="251" y="414" type="curve" smooth="yes"/>
      <point x="312" y="414"/>
      <point x="347" y="407"/>
      <point x="392" y="387" type="curve"/>
      <point x="392" y="459" type="line"/>
      <point x="348" y="481"/>
      <point x="304" y="496"/>
      <point x="233" y="496" type="curve" smooth="yes"/>
      <point x="102" y="496"/>
      <point x="40" y="444"/>
      <point x="40" y="303" type="curve" smooth="yes"/>
      <point x="40" y="163"/>
      <point x="102" y="110"/>
      <point x="233" y="110" type="curve" smooth="yes"/>
    </contour>
    <contour>
      <point x="450" y="0" type="line"/>
      <point x="450" y="614" type="line"/>
      <point x="382" y="614" type="line"/>
      <point x="382" y="0" type="line"/>
    </contour>
    <contour>
      <point x="1005" y="113"/>
      <point x="1087" y="151"/>
      <point x="1119" y="205" type="curve"/>
      <point x="1119" y="289" type="line"/>
      <point x="1071" y="230"/>
      <point x="988" y="195"/>
      <point x="902" y="195" type="curve" smooth="yes"/>
      <point x="813" y="195"/>
      <point x="763" y="233"/>
      <point x="763" y="304" type="curve" smooth="yes"/>
      <point x="763" y="359"/>
      <point x="793" y="406"/>
      <point x="840" y="423" type="curve"/>
      <point x="762" y="423" type="line"/>
      <point x="718" y="402"/>
      <point x="697" y="357"/>
      <point x="697" y="296" type="curve" smooth="yes"/>
      <point x="697" y="181"/>
      <point x="773" y="113"/>
      <point x="906" y="113" type="curve" smooth="yes"/>
    </contour>
    <contour>
      <point x="1283" y="604" type="line"/>
      <point x="1283" y="680" type="line"/>
      <point x="-10" y="680" type="line"/>
      <point x="-9" y="604" type="line"/>
    </contour>
    <contour>
      <point x="1177" y="0" type="line"/>
      <point x="1177" y="614" type="line"/>
      <point x="1109" y="614" type="line"/>
      <point x="1109" y="0" type="line"/>
    </contour>
    <contour>
      <point x="1029" y="413" type="line"/>
      <point x="1029" y="491" type="line"/>
      <point x="668" y="491" type="line" smooth="yes"/>
      <point x="566" y="491"/>
      <point x="500" y="464"/>
      <point x="442" y="396" type="curve"/>
      <point x="442" y="325" type="line"/>
      <point x="500" y="383"/>
      <point x="569" y="413"/>
      <point x="658" y="413" type="curve" smooth="yes"/>
    </contour>
    <contour>
      <point x="727" y="0" type="move" name="nukta"/>
    </contour>
    <contour>
      <point x="1143" y="0" type="move" name="bottom"/>
    </contour>
    <contour>
      <point x="1143" y="680" type="move" name="top"/>
    </contour>
  </outline>
</glyph>
<glyph name="kh_na-deva" format="1">
  <advance width="849"/>
  <note>
	dKhNa
  </note>
  <outline>
    <contour>
      <point x="512" y="-95" type="line"/>
      <point x="706" y="75" type="line"/>
      <point x="602" y="75" type="line"/>
      <point x="462" y="-49" type="line" smooth="yes"/>
      <point x="425" y="-82"/>
      <point x="413" y="-109"/>
      <point x="412" y="-130" type="curve" smooth="yes"/>
      <point x="410" y="-168"/>
      <point x="445" y="-218"/>
      <point x="496" y="-218" type="curve" smooth="yes"/>
      <point x="514" y="-218"/>
      <point x="536" y="-212"/>
      <point x="567" y="-183" type="curve"/>
      <point x="527" y="-60" type="line"/>
    </contour>
    <component base="kha-deva"/>
  </outline>
</glyph>
<glyph name="macron.case" format="1">
  <advance width="500"/>
  <outline>
    <contour>
      <point x="57" y="781" type="line"/>
      <point x="443" y="781" type="line"/>
      <point x="443" y="851" type="line"/>
      <point x="57" y="851" type="line"/>
    </contour>
    <contour>
      <point x="250" y="680" type="move" name="_top"/>
    </contour>
  </outline>
</glyph>
<glyph name="n_ca-deva" format="1">
  <advance width="965"/>
  <outline>
    <contour>
      <point x="-10" y="680" type="line"/>
      <point x="-10" y="604" type="line"/>
      <point x="435" y="604" type="line"/>
      <point x="435" y="680" type="line"/>
    </contour>
    <contour>
      <point x="146" y="247" type="line"/>
      <point x="426" y="247" type="line"/>
      <point x="426" y="325" type="line"/>
      <point x="144" y="325" type="line" smooth="yes"/>
      <point x="61" y="325"/>
      <point x="30" y="301"/>
      <point x="30" y="235" type="curve" smooth="yes"/>
      <point x="30" y="172"/>
      <point x="59" y="140"/>
      <point x="124" y="140" type="curve"/>
      <point x="176" y="259" type="line"/>
    </contour>
    <component base="ca-deva" xOffset="305"/>
    <contour>
      <point x="105" y="0" type="move" name="nukta"/>
    </contour>
  </outline>
</glyph>
<glyph name="n_ra-deva" format="1">
  <advance width="311"/>
  <note>
	dNRa
  </note>
  <outline>
    <contour>
      <point x="351" y="604" type="line"/>
      <point x="351" y="680" type="line"/>
      <point x="0" y="680" type="line"/>
      <point x="0" y="604" type="line"/>
    </contour>
    <contour>
      <point x="357" y="312" type="line"/>
      <point x="19" y="0" type="line"/>
      <point x="127" y="0" type="line"/>
      <point x="410" y="267" type="line"/>
      <point x="410" y="353" type="line"/>
      <point x="151" y="445" type="line" smooth="yes"/>
      <point x="127" y="453"/>
      <point x="108" y="455"/>
      <point x="95" y="455" type="curve" smooth="yes"/>
      <point x="40" y="455"/>
      <point x="5" y="417"/>
      <point x="5" y="365" type="curve" smooth="yes"/>
      <point x="5" y="323"/>
      <point x="28" y="292"/>
      <point x="68" y="283" type="curve"/>
      <point x="157" y="378" type="line"/>
      <point x="127" y="373" type="line"/>
      <point x="357" y="292" type="line"/>
    </contour>
    <contour>
      <point x="161" y="-120" type="move" name="nukta"/>
    </contour>
  </outline>
</glyph>
<glyph name="ng_kha-deva" format="1">
  <advance width="629"/>
  <outline>
    <contour>
      <point x="365" y="-321"/>
      <point x="410" y="-304"/>
      <point x="440" y="-277" type="curve"/>
      <point x="440" y="-216" type="line"/>
      <point x="409" y="-240"/>
      <point x="365" y="-251"/>
      <point x="301" y="-251" type="curve" smooth="yes"/>
      <point x="223" y="-251"/>
      <point x="169" y="-235"/>
      <point x="80" y="-120" type="curve"/>
      <point x="54" y="-156" type="line"/>
      <point x="144" y="-156"/>
      <point x="178" y="-130"/>
      <point x="178" y="-28" type="curve" smooth="yes"/>
      <point x="178" y="37"/>
      <point x="164" y="94"/>
      <point x="138" y="143" type="curve"/>
      <point x="45" y="143" type="line"/>
      <point x="85" y="107"/>
      <point x="120" y="46"/>
      <point x="120" y="-17" type="curve" smooth="yes"/>
      <point x="120" y="-75"/>
      <point x="90" y="-88"/>
      <point x="38" y="-88" type="curve" smooth="yes"/>
      <point x="22" y="-88" type="line"/>
      <point x="22" y="-150" type="line"/>
      <point x="134" y="-297"/>
      <point x="213" y="-321"/>
      <point x="296" y="-321" type="curve" smooth="yes"/>
    </contour>
    <contour>
      <point x="382" y="-195"/>
      <point x="412" y="-187"/>
      <point x="440" y="-168" type="curve"/>
      <point x="440" y="-111" type="line"/>
      <point x="411" y="-121"/>
      <point x="390" y="-125"/>
      <point x="353" y="-125" type="curve" smooth="yes"/>
      <point x="294" y="-125"/>
      <point x="276" y="-115"/>
      <point x="276" y="-66" type="curve" smooth="yes"/>
      <point x="276" y="-17"/>
      <point x="294" y="-7"/>
      <point x="353" y="-7" type="curve" smooth="yes"/>
      <point x="390" y="-7"/>
      <point x="411" y="-11"/>
      <point x="440" y="-21" type="curve"/>
      <point x="440" y="36" type="line"/>
      <point x="412" y="55"/>
      <point x="382" y="63"/>
      <point x="339" y="63" type="curve" smooth="yes"/>
      <point x="254" y="63"/>
      <point x="218" y="31"/>
      <point x="218" y="-68" type="curve" smooth="yes"/>
      <point x="218" y="-167"/>
      <point x="254" y="-195"/>
      <point x="338" y="-195" type="curve" smooth="yes"/>
    </contour>
    <contour>
      <point x="476" y="-321" type="line"/>
      <point x="476" y="219" type="line"/>
      <point x="418" y="219" type="line"/>
      <point x="418" y="-321" type="line"/>
    </contour>
    <component base="ng_deva.post"/>
    <contour>
      <point x="22" y="-321" type="move" name="nukta"/>
    </contour>
    <contour>
      <point x="447" y="-301" type="move" name="bottom"/>
    </contour>
  </outline>
</glyph>
<glyph name="ra_uMatra-deva" format="1">
  <advance width="650"/>
  <note>
	dRMatraU
  </note>
  <outline>
    <contour>
      <point x="382" y="680" type="line"/>
      <point x="382" y="604" type="line"/>
      <point x="660" y="604" type="line"/>
      <point x="660" y="680" type="line"/>
    </contour>
    <contour>
      <point x="413" y="181" type="line"/>
      <point x="432" y="176"/>
      <point x="459" y="173"/>
      <point x="482" y="173" type="curve" smooth="yes"/>
      <point x="572" y="173"/>
      <point x="617" y="220"/>
      <point x="617" y="308" type="curve" smooth="yes"/>
      <point x="617" y="400"/>
      <point x="568" y="446"/>
      <point x="474" y="446" type="curve" smooth="yes"/>
      <point x="402" y="446"/>
      <point x="331" y="420"/>
      <point x="270" y="368" type="curve"/>
      <point x="270" y="307" type="line"/>
      <point x="352" y="356"/>
      <point x="410" y="374"/>
      <point x="472" y="374" type="curve" smooth="yes"/>
      <point x="533" y="374"/>
      <point x="555" y="357"/>
      <point x="555" y="309" type="curve" smooth="yes"/>
      <point x="555" y="262"/>
      <point x="535" y="245"/>
      <point x="476" y="245" type="curve" smooth="yes"/>
      <point x="455" y="245"/>
      <point x="435" y="247"/>
      <point x="413" y="253" type="curve"/>
    </contour>
    <component base="ra-deva"/>
  </outline>
</glyph>
<glyph name="reph-deva.imatra" format="1">
  <advance width="260"/>
  <outline>
    <contour>
      <point x="164" y="670" type="line"/>
      <point x="164" y="778" type="line" smooth="yes"/>
      <point x="164" y="837"/>
      <point x="190" y="858"/>
      <point x="246" y="858" type="curve" smooth="yes"/>
      <point x="268" y="858"/>
      <point x="284" y="857"/>
      <point x="304" y="853" type="curve"/>
      <point x="304" y="936" type="line"/>
      <point x="287" y="939"/>
      <point x="270" y="940"/>
      <point x="246" y="940" type="curve" smooth="yes"/>
      <point x="160" y="940"/>
      <point x="110" y="893"/>
      <point x="110" y="788" type="curve" smooth="yes"/>
      <point x="110" y="670" type="line"/>
    </contour>
    <contour>
      <point x="130" y="680" type="move" name="_top"/>
    </contour>
  </outline>
</glyph>
<glyph name="sh_la-deva.loclMAR" format="1">
  <advance width="1197"/>
  <outline>
    <contour>
      <point x="67" y="278" type="line"/>
      <point x="255" y="334"/>
      <point x="388" y="384"/>
      <point x="388" y="535" type="curve" smooth="yes"/>
      <point x="388" y="626"/>
      <point x="340" y="688"/>
      <point x="245" y="688" type="curve" smooth="yes"/>
      <point x="153" y="688"/>
      <point x="103" y="631"/>
      <point x="101" y="539" type="curve" smooth="yes"/>
      <point x="98" y="387"/>
      <point x="232" y="279"/>
      <point x="575" y="279" type="curve"/>
      <point x="575" y="357" type="line"/>
      <point x="300" y="358"/>
      <point x="173" y="423"/>
      <point x="173" y="534" type="curve" smooth="yes"/>
      <point x="173" y="582"/>
      <point x="197" y="606"/>
      <point x="245" y="606" type="curve" smooth="yes"/>
      <point x="293" y="606"/>
      <point x="316" y="581"/>
      <point x="316" y="531" type="curve" smooth="yes"/>
      <point x="316" y="453"/>
      <point x="261" y="408"/>
      <point x="67" y="359" type="curve"/>
    </contour>
    <component base="la-deva.loclMAR" xOffset="461"/>
  </outline>
</glyph>
<glyph name="ss_tt_va-deva" format="1">
  <advance width="578"/>
  <outline>
    <contour>
      <point x="482" y="-359" type="line"/>
      <point x="482" y="-29" type="line"/>
      <point x="420" y="-29" type="line"/>
      <point x="420" y="-359" type="line"/>
    </contour>
    <contour>
      <point x="439" y="290" type="line"/>
      <point x="229" y="614" type="line"/>
      <point x="158" y="614" type="line"/>
      <point x="368" y="290" type="line"/>
    </contour>
    <contour>
      <point x="588" y="604" type="line"/>
      <point x="588" y="680" type="line"/>
      <point x="-10" y="680" type="line"/>
      <point x="-10" y="604" type="line"/>
    </contour>
    <contour>
      <point x="456" y="-52"/>
      <point x="478" y="-44"/>
      <point x="498" y="-34" type="curve"/>
      <point x="498" y="42" type="line"/>
      <point x="441" y="16"/>
      <point x="392" y="6"/>
      <point x="326" y="6" type="curve" smooth="yes"/>
      <point x="207" y="6"/>
      <point x="164" y="39"/>
      <point x="164" y="126" type="curve" smooth="yes"/>
      <point x="164" y="208"/>
      <point x="202" y="238"/>
      <point x="307" y="238" type="curve" smooth="yes"/>
      <point x="482" y="238" type="line"/>
      <point x="482" y="614" type="line"/>
      <point x="420" y="614" type="line"/>
      <point x="420" y="304" type="line"/>
      <point x="430" y="310" type="line"/>
      <point x="293" y="310" type="line" smooth="yes"/>
      <point x="204" y="310"/>
      <point x="158" y="340"/>
      <point x="158" y="424" type="curve" smooth="yes"/>
      <point x="158" y="614" type="line"/>
      <point x="96" y="614" type="line"/>
      <point x="96" y="426" type="line" smooth="yes"/>
      <point x="96" y="339"/>
      <point x="121" y="292"/>
      <point x="196" y="261" type="curve"/>
      <point x="196" y="284" type="line"/>
      <point x="126" y="268"/>
      <point x="88" y="216"/>
      <point x="88" y="123" type="curve" smooth="yes"/>
      <point x="88" y="35"/>
      <point x="122" y="-12"/>
      <point x="194" y="-36" type="curve"/>
      <point x="194" y="-20" type="line"/>
      <point x="121" y="-34"/>
      <point x="96" y="-87"/>
      <point x="96" y="-154" type="curve" smooth="yes"/>
      <point x="96" y="-266"/>
      <point x="166" y="-309"/>
      <point x="283" y="-309" type="curve" smooth="yes"/>
      <point x="350" y="-309"/>
      <point x="391" y="-295"/>
      <point x="432" y="-276" type="curve"/>
      <point x="432" y="-211" type="line"/>
      <point x="387" y="-228"/>
      <point x="351" y="-233"/>
      <point x="295" y="-233" type="curve" smooth="yes"/>
      <point x="196" y="-233"/>
      <point x="162" y="-217"/>
      <point x="162" y="-151" type="curve" smooth="yes"/>
      <point x="162" y="-86"/>
      <point x="194" y="-70"/>
      <point x="291" y="-70" type="curve" smooth="yes"/>
      <point x="351" y="-70"/>
      <point x="387" y="-76"/>
      <point x="432" y="-92" type="curve"/>
      <point x="432" y="-58" type="line"/>
    </contour>
    <contour>
      <point x="96" y="-359" type="move" name="nukta"/>
    </contour>
    <contour>
      <point x="451" y="-359" type="move" name="bottom"/>
    </contour>
    <contour>
      <point x="451" y="680" type="move" name="top"/>
    </contour>
  </outline>
</glyph>
<glyph name="ss_tt_ya-deva" format="1">
  <advance width="1081"/>
  <outline>
    <contour>
      <point x="915" y="614" type="line"/>
      <point x="915" y="0" type="line"/>
      <point x="985" y="0" type="line"/>
      <point x="985" y="614" type="line"/>
    </contour>
    <contour>
      <point x="522" y="680" type="line"/>
      <point x="522" y="604" type="line"/>
      <point x="1091" y="604" type="line"/>
      <point x="1091" y="680" type="line"/>
    </contour>
    <contour>
      <point x="798" y="484"/>
      <point x="767" y="501"/>
      <point x="697" y="501" type="curve" smooth="yes"/>
      <point x="472" y="501" type="line"/>
      <point x="472" y="425" type="line"/>
      <point x="684" y="425" type="line" smooth="yes"/>
      <point x="717" y="425"/>
      <point x="724" y="419"/>
      <point x="724" y="396" type="curve" smooth="yes"/>
      <point x="724" y="352"/>
      <point x="698" y="345"/>
      <point x="592" y="345" type="curve" smooth="yes"/>
      <point x="552" y="345" type="line"/>
      <point x="552" y="335" type="line" smooth="yes"/>
      <point x="552" y="186"/>
      <point x="644" y="122"/>
      <point x="795" y="122" type="curve" smooth="yes"/>
      <point x="855" y="122"/>
      <point x="909" y="132"/>
      <point x="935" y="148" type="curve"/>
      <point x="935" y="229" type="line"/>
      <point x="903" y="211"/>
      <point x="858" y="202"/>
      <point x="794" y="202" type="curve" smooth="yes"/>
      <point x="706" y="202"/>
      <point x="643" y="219"/>
      <point x="622" y="281" type="curve"/>
      <point x="746" y="281"/>
      <point x="798" y="307"/>
      <point x="798" y="407" type="curve" smooth="yes"/>
    </contour>
    <component base="ss_tta-deva"/>
    <contour>
      <point x="950" y="680" type="move" name="top"/>
    </contour>
    <contour>
      <point x="950" y="0" type="move" name="bottom"/>
    </contour>
  </outline>
</glyph>
<glyph name="ss_tta-deva" format="1">
  <advance width="578"/>
  <outline>
    <contour>
      <point x="388" y="-76"/>
      <point x="450" y="-64"/>
      <point x="498" y="-40" type="curve"/>
      <point x="498" y="36" type="line"/>
      <point x="441" y="10"/>
      <point x="392" y="0"/>
      <point x="326" y="0" type="curve" smooth="yes"/>
      <point x="207" y="0"/>
      <point x="164" y="33"/>
      <point x="164" y="121" type="curve" smooth="yes"/>
      <point x="164" y="204"/>
      <point x="202" y="234"/>
      <point x="307" y="234" type="curve" smooth="yes"/>
      <point x="482" y="234" type="line"/>
      <point x="482" y="614" type="line"/>
      <point x="420" y="614" type="line"/>
      <point x="420" y="300" type="line"/>
      <point x="430" y="306" type="line"/>
      <point x="293" y="306" type="line" smooth="yes"/>
      <point x="204" y="306"/>
      <point x="158" y="336"/>
      <point x="158" y="420" type="curve" smooth="yes"/>
      <point x="158" y="614" type="line"/>
      <point x="96" y="614" type="line"/>
      <point x="96" y="422" type="line" smooth="yes"/>
      <point x="96" y="335"/>
      <point x="121" y="288"/>
      <point x="196" y="257" type="curve"/>
      <point x="196" y="280" type="line"/>
      <point x="125" y="258"/>
      <point x="88" y="204"/>
      <point x="88" y="118" type="curve" smooth="yes"/>
      <point x="88" y="-9"/>
      <point x="168" y="-76"/>
      <point x="323" y="-76" type="curve" smooth="yes"/>
    </contour>
    <contour>
      <point x="439" y="286" type="line"/>
      <point x="229" y="614" type="line"/>
      <point x="158" y="614" type="line"/>
      <point x="368" y="286" type="line"/>
    </contour>
    <contour>
      <point x="588" y="604" type="line"/>
      <point x="588" y="680" type="line"/>
      <point x="-10" y="680" type="line"/>
      <point x="-10" y="604" type="line"/>
    </contour>
    <contour>
      <point x="588" y="604" type="line"/>
      <point x="588" y="680" type="line"/>
      <point x="-10" y="680" type="line"/>
      <point x="-10" y="604" type="line"/>
    </contour>
    <contour>
      <point x="82" y="-122" type="move" name="nukta"/>
    </contour>
    <contour>
      <point x="321" y="-76" type="move" name="bottom"/>
    </contour>
    <contour>
      <point x="447" y="680" type="move" name="top"/>
    </contour>
  </outline>
</glyph>
<glyph name="tt_tta-deva.post" format="1">
  <advance width="505"/>
  <outline>
    <contour>
      <point x="-10" y="680" type="line"/>
      <point x="-10" y="604" type="line"/>
      <point x="605" y="604" type="line"/>
      <point x="605" y="680" type="line"/>
    </contour>
    <contour>
      <point x="119" y="508"/>
      <point x="40" y="460"/>
      <point x="40" y="328" type="curve" smooth="yes"/>
      <point x="40" y="183"/>
      <point x="134" y="140"/>
      <point x="273" y="140" type="curve" smooth="yes"/>
      <point x="350" y="140"/>
      <point x="408" y="153"/>
      <point x="456" y="177" type="curve"/>
      <point x="456" y="253" type="line"/>
      <point x="406" y="230"/>
      <point x="352" y="216"/>
      <point x="275" y="216" type="curve" smooth="yes"/>
      <point x="147" y="216"/>
      <point x="106" y="254"/>
      <point x="106" y="330" type="curve" smooth="yes"/>
      <point x="106" y="411"/>
      <point x="152" y="436"/>
      <point x="282" y="436" type="curve" smooth="yes"/>
      <point x="409" y="436" type="line"/>
      <point x="409" y="614" type="line"/>
      <point x="347" y="614" type="line"/>
      <point x="347" y="508" type="line"/>
      <point x="273" y="508" type="line" smooth="yes"/>
    </contour>
    <contour>
      <point x="378" y="680" type="move" name="top"/>
    </contour>
  </outline>
</glyph>
<glyph name="tt_ya-deva" format="1">
  <advance width="1022"/>
  <outline>
    <contour>
      <point x="858" y="612" type="line"/>
      <point x="858" y="0" type="line"/>
      <point x="926" y="0" type="line"/>
      <point x="926" y="612" type="line"/>
    </contour>
    <contour>
      <point x="1032" y="604" type="line"/>
      <point x="1032" y="680" type="line"/>
      <point x="528" y="680" type="line"/>
      <point x="528" y="604" type="line"/>
    </contour>
    <contour>
      <point x="635" y="167"/>
      <point x="563" y="181"/>
      <point x="540" y="246" type="curve"/>
      <point x="668" y="246"/>
      <point x="716" y="272"/>
      <point x="716" y="372" type="curve" smooth="yes"/>
      <point x="716" y="449"/>
      <point x="688" y="474"/>
      <point x="615" y="474" type="curve" smooth="yes"/>
      <point x="429" y="474" type="line"/>
      <point x="429" y="396" type="line"/>
      <point x="602" y="396" type="line" smooth="yes"/>
      <point x="632" y="396"/>
      <point x="642" y="390"/>
      <point x="642" y="363" type="curve" smooth="yes"/>
      <point x="642" y="325"/>
      <point x="621" y="318"/>
      <point x="510" y="318" type="curve" smooth="yes"/>
      <point x="470" y="318" type="line"/>
      <point x="470" y="308" type="line" smooth="yes"/>
      <point x="470" y="150"/>
      <point x="567" y="85"/>
      <point x="720" y="85" type="curve" smooth="yes"/>
      <point x="777" y="85"/>
      <point x="826" y="94"/>
      <point x="868" y="113" type="curve"/>
      <point x="868" y="187" type="line"/>
      <point x="825" y="173"/>
      <point x="779" y="167"/>
      <point x="722" y="167" type="curve" smooth="yes"/>
    </contour>
    <component base="tta-deva"/>
    <contour>
      <point x="892" y="680" type="move" name="top"/>
    </contour>
    <contour>
      <point x="892" y="0" type="move" name="bottom"/>
    </contour>
  </outline>
</glyph>
<glyph name="v_ra-deva" format="1">
  <advance width="352"/>
  <note>
	dVR.half
  </note>
  <outline>
    <contour>
      <point x="362" y="604" type="line"/>
      <point x="362" y="680" type="line"/>
      <point x="-10" y="680" type="line"/>
      <point x="-10" y="604" type="line"/>
    </contour>
    <contour>
      <point x="366" y="145" type="line"/>
      <point x="74" y="-100" type="line"/>
      <point x="186" y="-100" type="line"/>
      <point x="466" y="145" type="line"/>
    </contour>
    <contour>
      <point x="109" y="502"/>
      <point x="39" y="452"/>
      <point x="39" y="303" type="curve" smooth="yes"/>
      <point x="39" y="152"/>
      <point x="111" y="104"/>
      <point x="268" y="104" type="curve" smooth="yes"/>
      <point x="361" y="104"/>
      <point x="415" y="121"/>
      <point x="466" y="145" type="curve"/>
      <point x="466" y="222" type="line"/>
      <point x="411" y="194"/>
      <point x="357" y="186"/>
      <point x="277" y="186" type="curve" smooth="yes"/>
      <point x="150" y="186"/>
      <point x="111" y="206"/>
      <point x="111" y="303" type="curve" smooth="yes"/>
      <point x="111" y="398"/>
      <point x="148" y="420"/>
      <point x="271" y="420" type="curve" smooth="yes"/>
      <point x="309" y="420"/>
      <point x="340" y="418"/>
      <point x="366" y="415" type="curve"/>
      <point x="366" y="495" type="line"/>
      <point x="343" y="499"/>
      <point x="307" y="502"/>
      <point x="268" y="502" type="curve" smooth="yes"/>
    </contour>
    <contour>
      <point x="39" y="40" type="move" name="nukta"/>
    </contour>
  </outline>
</glyph>
<glyph name="v_ya-deva" format="1">
  <advance width="913"/>
  <outline>
    <contour>
      <point x="345" y="604" type="line"/>
      <point x="345" y="680" type="line"/>
      <point x="-10" y="680" type="line"/>
      <point x="-10" y="604" type="line"/>
    </contour>
    <contour>
      <point x="308" y="420"/>
      <point x="343" y="414"/>
      <point x="366" y="404" type="curve"/>
      <point x="460" y="409" type="line"/>
      <point x="428" y="478"/>
      <point x="360" y="502"/>
      <point x="256" y="502" type="curve" smooth="yes"/>
      <point x="110" y="502"/>
      <point x="39" y="448"/>
      <point x="39" y="303" type="curve" smooth="yes"/>
      <point x="39" y="155"/>
      <point x="111" y="104"/>
      <point x="259" y="104" type="curve" smooth="yes"/>
      <point x="369" y="104"/>
      <point x="451" y="129"/>
      <point x="514" y="185" type="curve"/>
      <point x="469" y="224" type="line"/>
      <point x="413" y="196"/>
      <point x="362" y="186"/>
      <point x="273" y="186" type="curve" smooth="yes"/>
      <point x="147" y="186"/>
      <point x="111" y="207"/>
      <point x="111" y="302" type="curve" smooth="yes"/>
      <point x="111" y="398"/>
      <point x="148" y="420"/>
      <point x="262" y="420" type="curve" smooth="yes"/>
    </contour>
    <component base="ya-deva" xOffset="336"/>
    <contour>
      <point x="66" y="0" type="move" name="nukta"/>
    </contour>
  </outline>
</glyph>
